<svg xmlns="http://www.w3.org/2000/svg" width="72" height="72" viewBox="0 0 72 72">
  <g id="codemap-img1" transform="translate(-25.556 -75.436)">
    <g id="그룹_7" data-name="그룹 7" transform="translate(34.555 109.934)">
      <path id="패스_1" data-name="패스 1" d="M36.388,85.463h-7.5a1.5,1.5,0,0,1,0-3h7.5a1.5,1.5,0,1,1,0,3Z" transform="translate(-27.389 -82.463)" fill="#0ab5fd"/>
    </g>
    <g id="그룹_8" data-name="그룹 8" transform="translate(78.056 109.934)">
      <path id="패스_2" data-name="패스 2" d="M45.249,85.463h-7.5a1.5,1.5,0,1,1,0-3h7.5a1.5,1.5,0,1,1,0,3Z" transform="translate(-36.25 -82.463)" fill="#0ab5fd"/>
    </g>
    <g id="그룹_37" data-name="그룹 37" transform="translate(25.556 75.436)">
      <g id="그룹_12" data-name="그룹 12">
        <g id="그룹_9" data-name="그룹 9">
          <path id="패스_3" data-name="패스 3" d="M37.112,75.741,25.861,81.146,37.112,87l11.25-5.851Z" transform="translate(-24.363 -74.243)" fill="#fff"/>
          <path id="패스_4" data-name="패스 4" d="M38.306,89.693a1.49,1.49,0,0,1-.692-.172L26.361,83.669a1.5,1.5,0,0,1,.044-2.68l11.247-5.405a1.51,1.51,0,0,1,1.3,0l11.252,5.405a1.5,1.5,0,0,1,.039,2.68L39,89.521A1.5,1.5,0,0,1,38.306,89.693Zm-7.9-7.3,7.9,4.109L46.2,82.392,38.306,78.6Z" transform="translate(-25.556 -75.436)" fill="#943ece"/>
        </g>
        <g id="그룹_10" data-name="그룹 10" transform="translate(11.247 5.407)">
          <path id="패스_5" data-name="패스 5" d="M39.4,76.842l-11.25,5.851V96.938L39.4,90.979Z" transform="translate(-26.652 -75.346)" fill="#d4bbf1"/>
          <path id="패스_6" data-name="패스 6" d="M29.349,99.629a1.485,1.485,0,0,1-.766-.211,1.517,1.517,0,0,1-.736-1.291V83.88a1.49,1.49,0,0,1,.81-1.321l11.252-5.852a1.5,1.5,0,0,1,1.468.044,1.479,1.479,0,0,1,.722,1.276v7.29a1.5,1.5,0,1,1-3,0V80.5l-8.253,4.291V95.638l4.5-2.386a1.537,1.537,0,0,1,2.023.633,1.5,1.5,0,0,1-.628,2.023l-6.691,3.54A1.44,1.44,0,0,1,29.349,99.629ZM40.6,92.82a1.5,1.5,0,1,1,1.5-1.5A1.5,1.5,0,0,1,40.6,92.82Z" transform="translate(-27.847 -76.537)" fill="#943ece"/>
        </g>
        <g id="그룹_11" data-name="그룹 11" transform="translate(0 5.401)">
          <path id="패스_7" data-name="패스 7" d="M37.112,82.694V96.938L25.861,90.979V76.842Z" transform="translate(-24.363 -75.34)" fill="#d4bbf1"/>
          <path id="패스_8" data-name="패스 8" d="M38.305,99.634a1.544,1.544,0,0,1-.7-.172L26.351,93.5a1.5,1.5,0,0,1-.8-1.326V78.038a1.5,1.5,0,0,1,2.19-1.33L39,82.559a1.5,1.5,0,0,1,.805,1.33V98.132a1.5,1.5,0,0,1-1.5,1.5Zm-9.75-8.361L36.8,95.643V84.8l-8.248-4.291Z" transform="translate(-25.556 -76.536)" fill="#943ece"/>
        </g>
      </g>
      <g id="그룹_16" data-name="그룹 16" transform="translate(46.501)">
        <g id="그룹_13" data-name="그룹 13">
          <path id="패스_9" data-name="패스 9" d="M46.584,75.741,35.333,81.146,46.584,87l11.251-5.851Z" transform="translate(-33.834 -74.243)" fill="#fff"/>
          <path id="패스_10" data-name="패스 10" d="M47.778,89.693a1.5,1.5,0,0,1-.692-.172L35.833,83.669a1.5,1.5,0,0,1,.044-2.68L47.13,75.583a1.5,1.5,0,0,1,1.3,0l11.252,5.405a1.5,1.5,0,0,1,.044,2.68L48.47,89.521A1.5,1.5,0,0,1,47.778,89.693Zm-7.9-7.3,7.9,4.109,7.9-4.109-7.9-3.795Z" transform="translate(-35.028 -75.436)" fill="#0ab5fd"/>
        </g>
        <g id="그룹_14" data-name="그룹 14" transform="translate(11.247 5.401)">
          <path id="패스_11" data-name="패스 11" d="M48.876,76.842,37.625,82.694V96.938l11.251-5.959Z" transform="translate(-36.123 -75.34)" fill="#95edff"/>
          <path id="패스_12" data-name="패스 12" d="M38.821,99.634a1.5,1.5,0,0,1-1.5-1.5V83.89a1.5,1.5,0,0,1,.81-1.33l11.252-5.852a1.479,1.479,0,0,1,1.468.049,1.5,1.5,0,0,1,.722,1.281V92.177a1.5,1.5,0,0,1-.8,1.326l-11.252,5.96A1.544,1.544,0,0,1,38.821,99.634Zm1.5-14.836V95.643l8.248-4.369V80.507Z" transform="translate(-37.319 -76.536)" fill="#00b7ff"/>
        </g>
        <g id="그룹_15" data-name="그룹 15" transform="translate(0 5.401)">
          <path id="패스_13" data-name="패스 13" d="M46.584,82.694V96.938L35.333,90.979V76.842Z" transform="translate(-33.834 -75.34)" fill="#95edff"/>
          <path id="패스_14" data-name="패스 14" d="M47.777,99.634a1.544,1.544,0,0,1-.7-.172L35.823,93.5a1.5,1.5,0,0,1-.8-1.326V78.038a1.5,1.5,0,0,1,.722-1.281,1.479,1.479,0,0,1,1.468-.049L48.47,82.559a1.5,1.5,0,0,1,.81,1.33V98.132a1.5,1.5,0,0,1-1.5,1.5Zm-9.75-8.361,8.248,4.369V84.8l-8.248-4.291Z" transform="translate(-35.028 -76.536)" fill="#00b7ff"/>
        </g>
      </g>
      <g id="그룹_20" data-name="그룹 20" transform="translate(46.501 43.501)">
        <g id="그룹_17" data-name="그룹 17">
          <path id="패스_15" data-name="패스 15" d="M46.584,84.6,35.333,90.007l11.251,5.851,11.251-5.851Z" transform="translate(-33.834 -83.104)" fill="#fff"/>
          <path id="패스_16" data-name="패스 16" d="M47.778,98.554a1.5,1.5,0,0,1-.692-.172L35.833,92.53a1.5,1.5,0,0,1,.044-2.68L47.13,84.444a1.5,1.5,0,0,1,1.3,0l11.252,5.405a1.5,1.5,0,0,1,.044,2.68L48.47,98.382A1.5,1.5,0,0,1,47.778,98.554Zm-7.9-7.3,7.9,4.109,7.9-4.109-7.9-3.795Z" transform="translate(-35.028 -84.297)" fill="#04b46f"/>
        </g>
        <g id="그룹_18" data-name="그룹 18" transform="translate(11.247 5.407)">
          <path id="패스_17" data-name="패스 17" d="M48.876,85.7,37.625,91.555V105.8L48.876,99.84Z" transform="translate(-36.123 -84.207)" fill="#a8ffa8"/>
          <path id="패스_18" data-name="패스 18" d="M38.821,108.49a1.579,1.579,0,0,1-.781-.211,1.519,1.519,0,0,1-.722-1.286V92.741a1.5,1.5,0,0,1,.81-1.321l11.252-5.852a1.514,1.514,0,0,1,1.473.044,1.485,1.485,0,0,1,.717,1.276v7.29a1.5,1.5,0,1,1-3,0V89.363l-8.248,4.291V104.5l4.5-2.381a1.537,1.537,0,0,1,2.028.628,1.5,1.5,0,0,1-.633,2.023l-6.686,3.545A1.524,1.524,0,0,1,38.821,108.49Zm11.252-6.809a1.5,1.5,0,1,1,1.5-1.5A1.505,1.505,0,0,1,50.073,101.681Z" transform="translate(-37.319 -85.398)" fill="#04b46f"/>
        </g>
        <g id="그룹_19" data-name="그룹 19" transform="translate(0 5.401)">
          <path id="패스_19" data-name="패스 19" d="M46.584,91.555V105.8L35.333,99.84V85.7Z" transform="translate(-33.834 -84.2)" fill="#a8ffa8"/>
          <path id="패스_20" data-name="패스 20" d="M47.777,108.5a1.544,1.544,0,0,1-.7-.172l-11.252-5.96a1.5,1.5,0,0,1-.8-1.326V86.9a1.5,1.5,0,0,1,.722-1.281,1.479,1.479,0,0,1,1.468-.049L48.47,91.42a1.5,1.5,0,0,1,.81,1.33V107a1.5,1.5,0,0,1-.727,1.281A1.471,1.471,0,0,1,47.777,108.5Zm-9.75-8.361,8.248,4.369V93.664l-8.248-4.291Z" transform="translate(-35.028 -85.397)" fill="#04b46f"/>
        </g>
      </g>
      <g id="그룹_24" data-name="그룹 24" transform="translate(23.251 21.748)">
        <g id="그룹_21" data-name="그룹 21" transform="translate(11.247 5.406)">
          <path id="패스_21" data-name="패스 21" d="M44.14,81.273,32.889,87.125v14.244l11.251-5.96Z" transform="translate(-31.387 -79.773)" fill="#fff"/>
          <path id="패스_22" data-name="패스 22" d="M34.085,104.065a1.517,1.517,0,0,1-.776-.216,1.5,1.5,0,0,1-.727-1.286V88.321a1.512,1.512,0,0,1,.81-1.335l11.252-5.847a1.479,1.479,0,0,1,1.468.049,1.5,1.5,0,0,1,.722,1.281V96.6a1.5,1.5,0,0,1-.8,1.326l-11.252,5.96A1.49,1.49,0,0,1,34.085,104.065Zm1.5-14.836v10.845L43.835,95.7V84.938Z" transform="translate(-32.583 -80.967)" fill="#04b46f"/>
        </g>
        <g id="그룹_22" data-name="그룹 22" transform="translate(0 5.406)">
          <path id="패스_23" data-name="패스 23" d="M41.848,87.125v14.244L30.6,95.409V81.273Z" transform="translate(-29.099 -79.773)" fill="#fff"/>
          <path id="패스_24" data-name="패스 24" d="M43.041,104.065a1.49,1.49,0,0,1-.7-.177l-11.252-5.96a1.5,1.5,0,0,1-.8-1.326V82.469a1.5,1.5,0,0,1,2.19-1.33l11.252,5.847a1.508,1.508,0,0,1,.805,1.335v14.242a1.5,1.5,0,0,1-1.5,1.5ZM33.292,95.7l8.248,4.374V89.229l-8.248-4.291Z" transform="translate(-30.292 -80.967)" fill="#0056d3"/>
        </g>
        <g id="그룹_23" data-name="그룹 23">
          <path id="패스_25" data-name="패스 25" d="M41.848,80.172,30.6,85.577l11.251,5.852L53.1,85.577Z" transform="translate(-29.099 -78.671)" fill="#fff"/>
          <path id="패스_26" data-name="패스 26" d="M43.042,94.123a1.5,1.5,0,0,1-.692-.172L31.1,88.1a1.5,1.5,0,0,1,.044-2.685l11.252-5.405a1.5,1.5,0,0,1,1.3,0l11.252,5.405a1.5,1.5,0,0,1,.044,2.685L43.734,93.951A1.5,1.5,0,0,1,43.042,94.123Zm-7.9-7.3,7.9,4.109,7.9-4.109-7.9-3.79Z" transform="translate(-30.292 -79.866)" fill="#943ece"/>
        </g>
      </g>
      <g id="그룹_28" data-name="그룹 28" transform="translate(0 43.501)">
        <g id="그룹_25" data-name="그룹 25">
          <path id="패스_27" data-name="패스 27" d="M37.112,84.6l11.25,5.405-11.25,5.851L25.861,90.007Z" transform="translate(-24.363 -83.104)" fill="#fff"/>
          <path id="패스_28" data-name="패스 28" d="M38.306,98.554a1.489,1.489,0,0,1-.692-.172L26.361,92.53a1.5,1.5,0,0,1,.044-2.68l11.247-5.405a1.51,1.51,0,0,1,1.3,0l11.252,5.405a1.5,1.5,0,0,1,.039,2.68L39,98.382A1.5,1.5,0,0,1,38.306,98.554Zm-7.9-7.3,7.9,4.109L46.2,91.253l-7.894-3.795Z" transform="translate(-25.556 -84.297)" fill="#0056d3"/>
        </g>
        <g id="그룹_26" data-name="그룹 26" transform="translate(0 5.401)">
          <path id="패스_29" data-name="패스 29" d="M25.861,85.7l11.251,5.851V105.8L25.861,99.84Z" transform="translate(-24.363 -84.2)" fill="#97b0f9"/>
          <path id="패스_30" data-name="패스 30" d="M38.305,108.5a1.544,1.544,0,0,1-.7-.172l-11.252-5.96a1.5,1.5,0,0,1-.8-1.326V86.9a1.5,1.5,0,0,1,2.19-1.33L39,91.42a1.5,1.5,0,0,1,.805,1.33V107a1.491,1.491,0,0,1-.727,1.281A1.454,1.454,0,0,1,38.305,108.5Zm-9.75-8.361L36.8,104.5V93.664l-8.248-4.291Z" transform="translate(-25.556 -85.397)" fill="#0056d3"/>
        </g>
        <g id="그룹_27" data-name="그룹 27" transform="translate(11.247 5.401)">
          <path id="패스_31" data-name="패스 31" d="M28.153,91.555V105.8L39.4,99.84V85.7Z" transform="translate(-26.652 -84.2)" fill="#97b0f9"/>
          <path id="패스_32" data-name="패스 32" d="M29.349,108.5a1.471,1.471,0,0,1-.776-.216A1.491,1.491,0,0,1,27.847,107V92.751a1.5,1.5,0,0,1,.81-1.33L39.9,85.569A1.5,1.5,0,0,1,42.1,86.9v14.139a1.494,1.494,0,0,1-.8,1.326l-11.247,5.96A1.544,1.544,0,0,1,29.349,108.5Zm1.5-14.831V104.5l8.253-4.369V89.373Z" transform="translate(-27.847 -85.397)" fill="#0056d3"/>
        </g>
      </g>
      <g id="그룹_29" data-name="그룹 29" transform="translate(3 28.499)">
        <path id="패스_33" data-name="패스 33" d="M26.167,94.742a1.5,1.5,0,0,1,1.5-1.5h0a1.509,1.509,0,0,1,1.5,1.5h0a1.509,1.509,0,0,1-1.5,1.5h0A1.5,1.5,0,0,1,26.167,94.742Zm0-6a1.5,1.5,0,0,1,1.5-1.5h0a1.509,1.509,0,0,1,1.5,1.5h0a1.5,1.5,0,0,1-1.5,1.5h0A1.5,1.5,0,0,1,26.167,88.742Zm0-6a1.5,1.5,0,0,1,1.5-1.5h0a1.509,1.509,0,0,1,1.5,1.5h0a1.5,1.5,0,0,1-1.5,1.5h0A1.5,1.5,0,0,1,26.167,82.743Z" transform="translate(-26.167 -81.241)" fill="#0ab5fd"/>
      </g>
      <g id="그룹_30" data-name="그룹 30" transform="translate(8.999 31.498)">
        <path id="패스_34" data-name="패스 34" d="M28.886,90.851a1.5,1.5,0,0,1-1.5-1.5v-6a1.5,1.5,0,1,1,3,0v6A1.5,1.5,0,0,1,28.886,90.851Z" transform="translate(-27.389 -81.852)" fill="#0ab5fd"/>
      </g>
      <g id="그룹_31" data-name="그룹 31" transform="translate(60.002 31.498)">
        <path id="패스_35" data-name="패스 35" d="M39.275,90.851a1.5,1.5,0,0,1-1.5-1.5v-6a1.5,1.5,0,1,1,3,0v6A1.5,1.5,0,0,1,39.275,90.851Z" transform="translate(-37.778 -81.852)" fill="#0ab5fd"/>
      </g>
      <g id="그룹_32" data-name="그룹 32" transform="translate(66.001 28.499)">
        <path id="패스_36" data-name="패스 36" d="M39,94.742a1.505,1.505,0,0,1,1.5-1.5h0a1.5,1.5,0,0,1,1.5,1.5h0a1.5,1.5,0,0,1-1.5,1.5h0A1.505,1.505,0,0,1,39,94.742Zm0-6a1.505,1.505,0,0,1,1.5-1.5h0a1.5,1.5,0,0,1,1.5,1.5h0a1.5,1.5,0,0,1-1.5,1.5h0A1.5,1.5,0,0,1,39,88.742Zm0-6a1.505,1.505,0,0,1,1.5-1.5h0a1.5,1.5,0,0,1,1.5,1.5h0a1.5,1.5,0,0,1-1.5,1.5h0A1.5,1.5,0,0,1,39,82.743Z" transform="translate(-39 -81.241)" fill="#0ab5fd"/>
      </g>
      <g id="그룹_33" data-name="그룹 33" transform="translate(28.499 3)">
        <path id="패스_37" data-name="패스 37" d="M43.364,77.544a1.5,1.5,0,0,1,1.5-1.5h0a1.5,1.5,0,0,1,1.5,1.5h0a1.509,1.509,0,0,1-1.5,1.5h0A1.5,1.5,0,0,1,43.364,77.544Zm-6,0a1.5,1.5,0,0,1,1.5-1.5h0a1.5,1.5,0,0,1,1.5,1.5h0a1.5,1.5,0,0,1-1.5,1.5h0A1.509,1.509,0,0,1,37.36,77.544Zm-6,0a1.5,1.5,0,0,1,1.5-1.5h0a1.5,1.5,0,0,1,1.5,1.5h0a1.5,1.5,0,0,1-1.5,1.5h0A1.505,1.505,0,0,1,31.361,77.544Z" transform="translate(-31.361 -76.047)" fill="#0ab5fd"/>
      </g>
      <g id="그룹_34" data-name="그룹 34" transform="translate(28.499 66.001)">
        <path id="패스_38" data-name="패스 38" d="M43.364,90.377a1.5,1.5,0,0,1,1.5-1.5h0a1.5,1.5,0,0,1,1.5,1.5h0a1.509,1.509,0,0,1-1.5,1.5h0A1.5,1.5,0,0,1,43.364,90.377Zm-6,0a1.5,1.5,0,0,1,1.5-1.5h0a1.5,1.5,0,0,1,1.5,1.5h0a1.5,1.5,0,0,1-1.5,1.5h0A1.509,1.509,0,0,1,37.36,90.377Zm-6,0a1.5,1.5,0,0,1,1.5-1.5h0a1.5,1.5,0,0,1,1.5,1.5h0a1.5,1.5,0,0,1-1.5,1.5h0A1.505,1.505,0,0,1,31.361,90.377Z" transform="translate(-31.361 -88.88)" fill="#0ab5fd"/>
      </g>
      <g id="그룹_35" data-name="그룹 35" transform="translate(28.499 60.002)">
        <path id="패스_39" data-name="패스 39" d="M44.862,90.658h-12a1.5,1.5,0,1,1,0-3h12a1.5,1.5,0,1,1,0,3Z" transform="translate(-31.361 -87.658)" fill="#0ab5fd"/>
      </g>
      <g id="그룹_36" data-name="그룹 36" transform="translate(28.499 8.999)">
        <path id="패스_40" data-name="패스 40" d="M44.862,80.269h-12a1.5,1.5,0,1,1,0-3h12a1.5,1.5,0,1,1,0,3Z" transform="translate(-31.361 -77.269)" fill="#0ab5fd"/>
      </g>
    </g>
    <g id="그룹_38" data-name="그룹 38" transform="translate(60.054 84.435)">
      <path id="패스_41" data-name="패스 41" d="M34.085,86.268a1.5,1.5,0,0,1-1.5-1.5v-6a1.5,1.5,0,0,1,3,0v6A1.494,1.494,0,0,1,34.085,86.268Z" transform="translate(-32.583 -77.269)" fill="#0ab5fd"/>
    </g>
    <g id="그룹_39" data-name="그룹 39" transform="translate(60.054 129.434)">
      <path id="패스_42" data-name="패스 42" d="M34.085,95.439a1.5,1.5,0,0,1-1.5-1.5v-6a1.5,1.5,0,1,1,3,0v6A1.5,1.5,0,0,1,34.085,95.439Z" transform="translate(-32.583 -86.435)" fill="#0ab5fd"/>
    </g>
  </g>
</svg>
