<svg xmlns="http://www.w3.org/2000/svg" width="73.064" height="83.5" viewBox="0 0 73.064 83.5">
  <g id="codemap-img3" transform="translate(-60.694 -58.324)">
    <g id="그룹_41" data-name="그룹 41" transform="translate(64.174 84.419)">
      <path id="패스_43" data-name="패스 43" d="M63.045,76.823a1.739,1.739,0,0,1-1.338-2.852l8.7-10.441a1.742,1.742,0,0,1,2.676,2.232L64.383,76.2A1.729,1.729,0,0,1,63.045,76.823Z" transform="translate(-61.305 -62.908)" fill="#0056d3"/>
    </g>
    <g id="그룹_42" data-name="그룹 42" transform="translate(60.694 94.856)">
      <path id="패스_44" data-name="패스 44" d="M69.393,71.7a1.732,1.732,0,0,1-1.736-1.736,1.739,1.739,0,1,0-3.478,0,1.742,1.742,0,0,1-3.484,0,5.221,5.221,0,0,1,10.441,0A1.737,1.737,0,0,1,69.393,71.7Z" transform="translate(-60.694 -64.741)" fill="#0056d3"/>
    </g>
    <g id="그룹_43" data-name="그룹 43" transform="translate(118.1 84.419)">
      <path id="패스_45" data-name="패스 45" d="M81.215,76.823a1.738,1.738,0,0,1-1.338-.626L71.184,65.761a1.74,1.74,0,1,1,2.67-2.232l8.7,10.441a1.739,1.739,0,0,1-1.338,2.852Z" transform="translate(-70.778 -62.908)" fill="#0056d3"/>
    </g>
    <g id="그룹_51" data-name="그룹 51" transform="translate(71.135 58.324)">
      <g id="그룹_44" data-name="그룹 44" transform="translate(0 20.876)">
        <path id="패스_46" data-name="패스 46" d="M66.311,69.254h5.22V62.3h-5.22a3.481,3.481,0,0,0-3.478,3.478h0a3.479,3.479,0,0,0,3.478,3.478Z" transform="translate(-61.097 -60.555)" fill="#99b2fb"/>
        <path id="패스_47" data-name="패스 47" d="M72.963,72.426h-5.22a5.218,5.218,0,0,1,0-10.435h5.22a1.742,1.742,0,0,1,1.742,1.742V70.69A1.737,1.737,0,0,1,72.963,72.426Zm-5.22-6.957a1.739,1.739,0,0,0,0,3.478h3.484V65.469Z" transform="translate(-62.528 -61.991)" fill="#0056d5"/>
      </g>
      <g id="그룹_45" data-name="그룹 45" transform="translate(40.011 20.876)">
        <path id="패스_48" data-name="패스 48" d="M75.081,69.254h-5.22V62.3h5.22a3.474,3.474,0,0,1,3.478,3.478h0a3.477,3.477,0,0,1-3.478,3.478Z" transform="translate(-68.125 -60.555)" fill="#97b0f9"/>
        <path id="패스_49" data-name="패스 49" d="M76.513,72.426h-5.22a1.732,1.732,0,0,1-1.736-1.736V63.733a1.737,1.737,0,0,1,1.736-1.742h5.22a5.218,5.218,0,0,1,0,10.435Zm-3.478-3.478h3.478a1.739,1.739,0,0,0,0-3.478H73.034Z" transform="translate(-69.556 -61.991)" fill="#0056d3"/>
      </g>
      <g id="그룹_46" data-name="그룹 46" transform="translate(8.697)">
        <path id="패스_50" data-name="패스 50" d="M64.361,79.506H95.673l-2.75-16.516a5.22,5.22,0,0,0-5.147-4.361H72.263a5.215,5.215,0,0,0-5.147,4.361Z" transform="translate(-62.623 -56.888)" fill="#a8ffa8"/>
        <path id="패스_51" data-name="패스 51" d="M97.105,82.679H65.794a1.737,1.737,0,0,1-1.714-2.027l2.75-16.51A6.943,6.943,0,0,1,73.7,58.324H89.209a6.941,6.941,0,0,1,6.86,5.818l2.755,16.51a1.763,1.763,0,0,1-.393,1.412A1.727,1.727,0,0,1,97.105,82.679ZM67.849,79.2h27.2L92.636,64.712A3.468,3.468,0,0,0,89.209,61.8H73.7a3.469,3.469,0,0,0-3.433,2.909Z" transform="translate(-64.056 -58.324)" fill="#04b46f"/>
      </g>
      <g id="그룹_47" data-name="그룹 47" transform="translate(8.699 20.876)">
        <rect id="사각형_7" data-name="사각형 7" width="31.312" height="17.396" transform="translate(1.737 1.74)" fill="#fff"/>
        <path id="패스_52" data-name="패스 52" d="M97.1,82.867a1.737,1.737,0,0,1-1.736-1.742V65.469H67.534V81.125a1.739,1.739,0,1,1-3.478,0V63.733a1.737,1.737,0,0,1,1.736-1.742H97.1a1.742,1.742,0,0,1,1.742,1.742V81.125A1.742,1.742,0,0,1,97.1,82.867Z" transform="translate(-64.056 -61.991)" fill="#00b7ff"/>
      </g>
      <g id="그룹_48" data-name="그룹 48" transform="translate(19.134 27.833)">
        <path id="패스_53" data-name="패스 53" d="M69.678,63.519h3.478A3.48,3.48,0,0,1,76.635,67h0a3.479,3.479,0,0,1-3.478,3.478H69.678A3.483,3.483,0,0,1,66.194,67h0a3.482,3.482,0,0,1,3.484-3.478Z" transform="translate(-64.458 -61.777)" fill="#a8ffa8"/>
        <path id="패스_54" data-name="패스 54" d="M74.588,73.654H71.109a5.221,5.221,0,0,1,0-10.441h3.478a5.221,5.221,0,0,1,0,10.441Zm-3.478-6.963a1.739,1.739,0,1,0,0,3.478h3.478a1.739,1.739,0,0,0,0-3.478Z" transform="translate(-65.889 -63.213)" fill="#04b46f"/>
      </g>
      <g id="그룹_49" data-name="그룹 49" transform="translate(20.871 6.963)">
        <path id="패스_55" data-name="패스 55" d="M67.936,68.24A1.737,1.737,0,0,1,66.194,66.5v-5.22a1.742,1.742,0,0,1,3.484,0V66.5A1.737,1.737,0,0,1,67.936,68.24Z" transform="translate(-66.194 -59.547)" fill="#00ba6e"/>
      </g>
      <g id="그룹_50" data-name="그룹 50" transform="translate(27.833 6.963)">
        <path id="패스_56" data-name="패스 56" d="M69.153,68.24A1.732,1.732,0,0,1,67.417,66.5v-5.22a1.739,1.739,0,0,1,3.478,0V66.5A1.737,1.737,0,0,1,69.153,68.24Z" transform="translate(-67.417 -59.547)" fill="#00ba6e"/>
      </g>
    </g>
    <g id="그룹_52" data-name="그룹 52" transform="translate(123.317 94.856)">
      <path id="패스_57" data-name="패스 57" d="M80.393,71.7a1.732,1.732,0,0,1-1.736-1.736,1.739,1.739,0,1,0-3.478,0,1.742,1.742,0,0,1-3.484,0,5.221,5.221,0,0,1,10.441,0A1.737,1.737,0,0,1,80.393,71.7Z" transform="translate(-71.694 -64.741)" fill="#0056d3"/>
    </g>
    <g id="그룹_59" data-name="그룹 59" transform="translate(69.394 103.295)">
      <g id="그룹_58" data-name="그룹 58">
        <g id="그룹_53" data-name="그룹 53" transform="translate(26.045 0.26)">
          <path id="패스_58" data-name="패스 58" d="M67.146,75.674c.581,3.45,6.849,5.164,13.993,3.837s12.473-5.2,11.893-8.653-6.849-5.164-13.993-3.831S66.565,72.224,67.146,75.674Z" transform="translate(-65.364 -64.835)" fill="#fff"/>
          <path id="패스_59" data-name="패스 59" d="M77.864,83.132c-3.49,0-6.558-.734-8.557-2.135a5.531,5.531,0,0,1-2.442-3.6h0c-.763-4.52,4.947-9.1,13.288-10.652,5.465-1.019,10.669-.381,13.584,1.651A5.555,5.555,0,0,1,96.179,72c.763,4.52-4.947,9.1-13.288,10.652A27.767,27.767,0,0,1,77.864,83.132ZM70.3,76.818a2.144,2.144,0,0,0,1,1.332c1.759,1.23,5.83,2.038,10.959,1.082,6.872-1.275,10.8-4.794,10.487-6.649a2.135,2.135,0,0,0-1.008-1.332c-1.753-1.224-5.824-2.032-10.953-1.082-6.871,1.281-10.8,4.794-10.487,6.649Z" transform="translate(-66.797 -66.269)" fill="#0ab5fd"/>
        </g>
        <g id="그룹_54" data-name="그룹 54">
          <ellipse id="타원_1" data-name="타원 1" cx="6.329" cy="13.262" rx="6.329" ry="13.262" transform="translate(0.605 12.433) rotate(-79.167)" fill="#fff"/>
          <path id="패스_60" data-name="패스 60" d="M80.769,83.142a28.056,28.056,0,0,1-5.1-.484C67.283,81.1,61.527,76.51,62.29,71.99A5.514,5.514,0,0,1,64.726,68.4c2.926-2.044,8.169-2.67,13.686-1.651C86.8,68.312,92.56,72.9,91.8,77.421h0a5.487,5.487,0,0,1-2.437,3.587C87.362,82.408,84.282,83.142,80.769,83.142Zm-7.435-13.4a12.25,12.25,0,0,0-6.615,1.509,2.105,2.105,0,0,0-1,1.315c-.313,1.856,3.655,5.38,10.589,6.667,5.186.968,9.291.154,11.056-1.082a2.138,2.138,0,0,0,1-1.309h0c.313-1.862-3.655-5.386-10.589-6.672A24.41,24.41,0,0,0,73.334,69.747Zm16.749,7.39h0Z" transform="translate(-62.222 -65.997)" fill="#0ab5fd"/>
        </g>
        <g id="그룹_55" data-name="그룹 55" transform="translate(29.569 3.983)">
          <path id="패스_61" data-name="패스 61" d="M67.722,72.711l22.6-5.482.012,25.857-22.6,5.208Z" transform="translate(-65.98 -65.488)" fill="#d4bbf1"/>
          <path id="패스_62" data-name="패스 62" d="M69.169,101.468a1.743,1.743,0,0,1-1.736-1.736l-.017-25.584a1.741,1.741,0,0,1,1.332-1.691l22.6-5.482A1.744,1.744,0,0,1,93.5,68.659l.011,25.858a1.732,1.732,0,0,1-1.349,1.7l-22.6,5.209A1.85,1.85,0,0,1,69.169,101.468ZM70.9,75.514l.011,22.026,19.123-4.406-.011-22.26Z" transform="translate(-67.416 -66.923)" fill="#943ece"/>
        </g>
        <g id="그룹_56" data-name="그룹 56" transform="translate(0.028 3.983)">
          <path id="패스_63" data-name="패스 63" d="M85.122,72.711l-22.59-5.482V93.085l22.6,5.208Z" transform="translate(-60.794 -65.488)" fill="#d4bbf1"/>
          <path id="패스_64" data-name="패스 64" d="M86.57,101.468a1.85,1.85,0,0,1-.393-.046l-22.6-5.209a1.73,1.73,0,0,1-1.349-1.691V68.665a1.736,1.736,0,0,1,2.146-1.691l22.59,5.482A1.735,1.735,0,0,1,88.3,74.142l.011,25.584a1.743,1.743,0,0,1-1.736,1.742ZM65.705,93.134,84.828,97.54l-.011-22.026-19.112-4.64Z" transform="translate(-62.227 -66.923)" fill="#943ece"/>
        </g>
        <g id="그룹_57" data-name="그룹 57" transform="translate(22.629 9.465)">
          <rect id="사각형_8" data-name="사각형 8" width="6.955" height="25.583" transform="translate(1.739 1.741)" fill="#fff"/>
          <path id="패스_65" data-name="패스 65" d="M74.89,96.949H67.939A1.742,1.742,0,0,1,66.2,95.207V69.628a1.742,1.742,0,0,1,1.742-1.742H74.89a1.742,1.742,0,0,1,1.742,1.742V95.207A1.742,1.742,0,0,1,74.89,96.949ZM69.675,93.47h3.478V71.364H69.675Z" transform="translate(-66.197 -67.886)" fill="#943ece"/>
        </g>
      </g>
    </g>
  </g>
</svg>
