<svg xmlns="http://www.w3.org/2000/svg" width="82.335" height="82.334" viewBox="0 0 82.335 82.334">
  <g id="codemap-img2" transform="translate(-25.555 -58.324)">
    <g id="그룹_69" data-name="그룹 69" transform="translate(70.152 58.324)">
      <g id="그룹_61" data-name="그룹 61" transform="translate(13.722 22.298)">
        <path id="패스_66" data-name="패스 66" d="M37.661,79.45a1.715,1.715,0,0,1-1.027-3.087l5.445-4.081-5.759-7.2A1.717,1.717,0,1,1,39,62.94l6.86,8.577a1.713,1.713,0,0,1,.359,1.286,1.686,1.686,0,0,1-.668,1.156l-6.865,5.148A1.711,1.711,0,0,1,37.661,79.45Z" transform="translate(-35.944 -62.296)" fill="#0ab5fd"/>
      </g>
      <g id="그룹_68" data-name="그룹 68">
        <g id="그룹_67" data-name="그룹 67">
          <g id="그룹_62" data-name="그룹 62" transform="translate(0 22.302)">
            <path id="패스_67" data-name="패스 67" d="M40.361,77.734a1.717,1.717,0,0,1-1.37-.69l-5.148-6.86a1.711,1.711,0,0,1,.477-2.492l8.387-5.142A1.715,1.715,0,1,1,44.5,65.474l-6.781,4.16,4.019,5.355a1.718,1.718,0,0,1-.342,2.4A1.74,1.74,0,0,1,40.361,77.734Z" transform="translate(-33.5 -62.297)" fill="#0ab5fd"/>
          </g>
          <g id="그룹_63" data-name="그룹 63" transform="translate(8.388 3.43)">
            <path id="패스_68" data-name="패스 68" d="M42.16,59.241,35.3,76.393H42.16l8.576-17.152Z" transform="translate(-33.584 -57.523)" fill="#fff"/>
            <path id="패스_69" data-name="패스 69" d="M43.571,79.52h-6.86a1.716,1.716,0,0,1-1.594-2.352l6.86-17.149a1.725,1.725,0,0,1,1.594-1.083h8.577a1.719,1.719,0,0,1,1.533,2.487L45.1,78.571A1.708,1.708,0,0,1,43.571,79.52Zm-4.328-3.43H42.51L49.37,62.37H44.733Z" transform="translate(-34.994 -58.935)" fill="#0bb4fb"/>
          </g>
          <g id="그룹_64" data-name="그룹 64" transform="translate(18.869 0.001)">
            <path id="패스_70" data-name="패스 70" d="M52.6,58.63,37.167,60.345v5.146L52.6,68.921Z" transform="translate(-35.451 -56.913)" fill="#8ee7f9"/>
            <path id="패스_71" data-name="패스 71" d="M54.016,72.048a2.2,2.2,0,0,1-.376-.039L38.2,68.579A1.729,1.729,0,0,1,36.861,66.9V61.753a1.713,1.713,0,0,1,1.527-1.7l15.437-1.718a1.717,1.717,0,0,1,.376,3.413l-13.91,1.544v2.234l14.1,3.132a1.716,1.716,0,0,1-.37,3.391Z" transform="translate(-36.861 -58.324)" fill="#16b2f9"/>
          </g>
          <g id="그룹_65" data-name="그룹 65" transform="translate(8.281 17.155)">
            <path id="패스_72" data-name="패스 72" d="M35.28,65.138a3.43,3.43,0,1,0,3.407-3.452A3.434,3.434,0,0,0,35.28,65.138Z" transform="translate(-33.568 -59.968)" fill="#97b0f9"/>
            <path id="패스_73" data-name="패스 73" d="M40.117,71.67a5.145,5.145,0,0,1-5.142-5.108h0a5.137,5.137,0,0,1,5.108-5.181h.034a5.145,5.145,0,0,1,.039,10.29Zm-1.712-5.131a1.717,1.717,0,0,0,1.712,1.7h.017a1.717,1.717,0,0,0,1.7-1.729,1.671,1.671,0,0,0-1.729-1.7,1.7,1.7,0,0,0-1.207.511,1.678,1.678,0,0,0-.494,1.218Z" transform="translate(-34.975 -61.38)" fill="#0056d3"/>
          </g>
          <g id="그룹_66" data-name="그룹 66" transform="translate(13.536)">
            <path id="패스_74" data-name="패스 74" d="M36.216,63.778a5.148,5.148,0,1,0,5.148-5.148A5.146,5.146,0,0,0,36.216,63.778Z" transform="translate(-34.504 -56.912)" fill="#97b0f9"/>
            <path id="패스_75" data-name="패스 75" d="M42.771,72.049a6.863,6.863,0,1,1,6.86-6.86A6.866,6.866,0,0,1,42.771,72.049Zm0-10.3a3.433,3.433,0,1,0,3.43,3.435A3.438,3.438,0,0,0,42.771,61.754Z" transform="translate(-35.911 -58.324)" fill="#0056d3"/>
          </g>
        </g>
      </g>
    </g>
    <g id="그룹_78" data-name="그룹 78" transform="translate(25.555 101.21)">
      <g id="그룹_70" data-name="그룹 70" transform="translate(13.722)">
        <path id="패스_76" data-name="패스 76" d="M36.579,83.115a1.709,1.709,0,0,1-1.342-.646L28.377,73.9a1.715,1.715,0,0,1,.309-2.447l6.86-5.148a1.716,1.716,0,0,1,2.06,2.745l-5.445,4.087,5.754,7.191a1.715,1.715,0,0,1-1.336,2.79Z" transform="translate(-28 -65.964)" fill="#0ab5fd"/>
      </g>
      <g id="그룹_77" data-name="그룹 77" transform="translate(0 1.713)">
        <g id="그룹_76" data-name="그룹 76">
          <g id="그룹_71" data-name="그룹 71" transform="translate(25.922)">
            <path id="패스_77" data-name="패스 77" d="M31.891,81.707a1.717,1.717,0,0,1-.9-3.177l6.787-4.16-4.019-5.355a1.716,1.716,0,0,1,2.745-2.06l5.148,6.86a1.737,1.737,0,0,1,.309,1.353,1.72,1.72,0,0,1-.786,1.14l-8.387,5.148A1.737,1.737,0,0,1,31.891,81.707Z" transform="translate(-30.173 -66.269)" fill="#0ab5fd"/>
          </g>
          <g id="그룹_72" data-name="그룹 72" transform="translate(10.485 13.72)">
            <path id="패스_78" data-name="패스 78" d="M36.3,86.172l6.861-17.153H36.3L27.728,86.172Z" transform="translate(-26.015 -67.302)" fill="#fff"/>
            <path id="패스_79" data-name="패스 79" d="M37.713,89.3H29.135A1.713,1.713,0,0,1,27.6,86.817L36.18,69.662a1.712,1.712,0,0,1,1.533-.949h6.86a1.715,1.715,0,0,1,1.42.758,1.7,1.7,0,0,1,.174,1.594L39.307,88.22A1.72,1.72,0,0,1,37.713,89.3Zm-5.8-3.43h4.637l5.49-13.725H38.774Z" transform="translate(-27.423 -68.713)" fill="#0bb4fb"/>
          </g>
          <g id="그룹_73" data-name="그룹 73" transform="translate(0 24.016)">
            <path id="패스_80" data-name="패스 80" d="M25.861,81.143,41.3,79.429V74.283l-15.437-3.43Z" transform="translate(-24.144 -69.14)" fill="#8ee7f9"/>
            <path id="패스_81" data-name="패스 81" d="M27.272,84.266a1.715,1.715,0,0,1-.191-3.419L41,79.3V77.064L26.9,73.937a1.716,1.716,0,0,1,.741-3.351l15.437,3.43a1.717,1.717,0,0,1,1.347,1.673v5.148A1.719,1.719,0,0,1,42.9,82.543L27.463,84.255C27.4,84.26,27.333,84.266,27.272,84.266Z" transform="translate(-25.555 -70.547)" fill="#16b2f9"/>
          </g>
          <g id="그룹_74" data-name="그룹 74" transform="translate(19.169 10.29)">
            <path id="패스_82" data-name="패스 82" d="M36.14,71.81a3.433,3.433,0,1,0-3.407,3.458A3.43,3.43,0,0,0,36.14,71.81Z" transform="translate(-27.563 -66.69)" fill="#97b0f9"/>
            <path id="패스_83" data-name="패스 83" d="M34.112,78.392a5.145,5.145,0,0,1-.034-10.29h.039A5.149,5.149,0,0,1,39.26,73.21h0a5.146,5.146,0,0,1-5.108,5.181Zm0-6.86H34.1a1.715,1.715,0,0,0,.017,3.43h.011a1.668,1.668,0,0,0,1.207-.511,1.7,1.7,0,0,0,.494-1.213h0A1.719,1.719,0,0,0,34.112,71.532Z" transform="translate(-28.97 -68.102)" fill="#0056d3"/>
          </g>
          <g id="그룹_75" data-name="그룹 75" transform="translate(10.485 24.015)">
            <path id="패스_84" data-name="패스 84" d="M38.018,76a5.145,5.145,0,1,0-5.142,5.142A5.146,5.146,0,0,0,38.018,76Z" transform="translate(-26.016 -69.14)" fill="#97b0f9"/>
            <path id="패스_85" data-name="패스 85" d="M34.283,84.266a6.86,6.86,0,1,1,6.86-6.86A6.866,6.866,0,0,1,34.283,84.266Zm0-10.29a3.43,3.43,0,1,0,3.43,3.43A3.433,3.433,0,0,0,34.283,73.977Z" transform="translate(-27.423 -70.547)" fill="#0056d3"/>
          </g>
        </g>
      </g>
    </g>
    <g id="그룹_79" data-name="그룹 79" transform="translate(66.723 101.206)">
      <path id="패스_86" data-name="패스 86" d="M57.3,79.988a10.307,10.307,0,0,0-.18-1.875L60.639,76.1l-3.458-5.939-3.52,2.01A10.37,10.37,0,0,0,50.383,70.3V66.269H43.456V70.3a10.37,10.37,0,0,0-3.278,1.869l-3.52-2.01L33.194,76.1l3.52,2.015a9.905,9.905,0,0,0,0,3.755l-3.52,2.01,3.464,5.945,3.52-2.015a10.385,10.385,0,0,0,3.278,1.875v4.031h6.927V89.683a10.447,10.447,0,0,0,3.278-1.875l3.52,2.015,3.458-5.945-3.514-2.01A10.368,10.368,0,0,0,57.3,79.988Zm-10.385,3.43a3.43,3.43,0,1,1,3.464-3.43A3.444,3.444,0,0,1,46.919,83.418Z" transform="translate(-31.481 -64.551)" fill="#d4bbf1"/>
      <path id="패스_87" data-name="패스 87" d="M51.791,96.837H44.864a1.712,1.712,0,0,1-1.712-1.712v-2.88a11.566,11.566,0,0,1-1.7-.971l-2.532,1.448a1.712,1.712,0,0,1-2.335-.623L33.12,86.155a1.745,1.745,0,0,1-.174-1.308,1.715,1.715,0,0,1,.808-1.044l2.515-1.437c-.028-.326-.045-.651-.045-.966s.017-.634.045-.96L33.754,79a1.713,1.713,0,0,1-.634-2.352l3.464-5.945a1.719,1.719,0,0,1,2.335-.629l2.532,1.454a12.138,12.138,0,0,1,1.7-.977V67.681a1.717,1.717,0,0,1,1.712-1.718h6.927A1.717,1.717,0,0,1,53.5,67.681v2.874a12.139,12.139,0,0,1,1.7.977l2.532-1.454a1.72,1.72,0,0,1,2.335.629l3.458,5.945a1.692,1.692,0,0,1,.174,1.308A1.722,1.722,0,0,1,62.9,79L60.385,80.44c.028.326.039.646.039.96s-.011.64-.039.966L62.9,83.8a1.718,1.718,0,0,1,.629,2.352L60.071,92.1a1.713,1.713,0,0,1-2.335.623L55.2,91.274a11.567,11.567,0,0,1-1.7.971v2.88A1.712,1.712,0,0,1,51.791,96.837Zm-5.209-3.43h3.492V91.095a1.713,1.713,0,0,1,1.145-1.617,8.51,8.51,0,0,0,2.739-1.566,1.721,1.721,0,0,1,1.965-.18L57.96,88.9l1.735-2.975-2.015-1.156a1.713,1.713,0,0,1-.836-1.8,8.587,8.587,0,0,0,.152-1.566,8.481,8.481,0,0,0-.152-1.561,1.721,1.721,0,0,1,.836-1.808l2.015-1.151L57.96,73.9l-2.038,1.173a1.721,1.721,0,0,1-1.965-.185,8.6,8.6,0,0,0-2.739-1.561,1.719,1.719,0,0,1-1.145-1.617V69.393H46.581v2.318a1.716,1.716,0,0,1-1.151,1.617,8.723,8.723,0,0,0-2.739,1.561,1.712,1.712,0,0,1-1.959.185L38.689,73.9,36.96,76.881l2.015,1.151a1.729,1.729,0,0,1,.836,1.808A8.019,8.019,0,0,0,39.66,81.4a8.116,8.116,0,0,0,.152,1.566,1.718,1.718,0,0,1-.836,1.8L36.96,85.919,38.689,88.9l2.043-1.168a1.711,1.711,0,0,1,1.959.18,8.631,8.631,0,0,0,2.739,1.566,1.711,1.711,0,0,1,1.151,1.617Zm1.746-6.86A5.145,5.145,0,1,1,53.5,81.4,5.164,5.164,0,0,1,48.327,86.548Zm0-6.86A1.715,1.715,0,1,0,50.073,81.4,1.73,1.73,0,0,0,48.327,79.688Z" transform="translate(-32.889 -65.963)" fill="#943ece"/>
    </g>
    <g id="그룹_89" data-name="그룹 89" transform="translate(30.702 84.056)">
      <g id="그룹_80" data-name="그룹 80" transform="translate(1.718 1.712)">
        <circle id="타원_2" data-name="타원 2" cx="5.146" cy="5.146" r="5.146" transform="translate(1.714 1.717)" fill="#97b0f9"/>
        <path id="패스_88" data-name="패스 88" d="M33.638,76.938a6.863,6.863,0,1,1,6.86-6.865A6.867,6.867,0,0,1,33.638,76.938Zm0-10.3a3.433,3.433,0,1,0,3.43,3.43A3.437,3.437,0,0,0,33.638,66.643Z" transform="translate(-26.778 -63.213)" fill="#0056d3"/>
      </g>
      <g id="그룹_81" data-name="그룹 81" transform="translate(6.86)">
        <path id="패스_89" data-name="패스 89" d="M29.412,68.05a1.713,1.713,0,0,1-1.718-1.712V64.62a1.718,1.718,0,0,1,3.435,0v1.718A1.713,1.713,0,0,1,29.412,68.05Z" transform="translate(-27.694 -62.908)" fill="#0056d3"/>
      </g>
      <g id="그룹_82" data-name="그룹 82" transform="translate(6.86 12.007)">
        <path id="패스_90" data-name="패스 90" d="M29.412,70.189a1.713,1.713,0,0,1-1.718-1.712V66.759a1.718,1.718,0,0,1,3.435,0v1.718A1.713,1.713,0,0,1,29.412,70.189Z" transform="translate(-27.694 -65.047)" fill="#0056d3"/>
      </g>
      <g id="그룹_83" data-name="그룹 83" transform="translate(2.009 2.008)">
        <path id="패스_91" data-name="패스 91" d="M29.761,67.91a1.7,1.7,0,0,1-1.213-.505l-1.213-1.213a1.715,1.715,0,1,1,2.425-2.425l1.213,1.213a1.718,1.718,0,0,1-1.213,2.93Z" transform="translate(-26.83 -63.266)" fill="#0056d3"/>
      </g>
      <g id="그룹_84" data-name="그룹 84" transform="translate(10.502 10.497)">
        <path id="패스_92" data-name="패스 92" d="M31.269,69.42a1.727,1.727,0,0,1-1.213-.5l-1.213-1.213a1.715,1.715,0,1,1,2.425-2.425L32.481,66.5a1.713,1.713,0,0,1,.006,2.425A1.73,1.73,0,0,1,31.269,69.42Z" transform="translate(-28.343 -64.778)" fill="#0056d3"/>
      </g>
      <g id="그룹_85" data-name="그룹 85" transform="translate(0 6.86)">
        <path id="패스_93" data-name="패스 93" d="M29.9,67.56H28.19a1.715,1.715,0,1,1,0-3.43H29.9a1.715,1.715,0,1,1,0,3.43Z" transform="translate(-26.472 -64.13)" fill="#0056d3"/>
      </g>
      <g id="그룹_86" data-name="그룹 86" transform="translate(12.007 6.86)">
        <path id="패스_94" data-name="패스 94" d="M32.041,67.56H30.329a1.715,1.715,0,1,1,0-3.43h1.712a1.715,1.715,0,1,1,0,3.43Z" transform="translate(-28.611 -64.13)" fill="#0056d3"/>
      </g>
      <g id="그룹_87" data-name="그룹 87" transform="translate(10.502 2.008)">
        <path id="패스_95" data-name="패스 95" d="M30.056,67.91a1.718,1.718,0,0,1-1.213-2.93l1.213-1.213a1.715,1.715,0,1,1,2.425,2.425L31.269,67.4A1.7,1.7,0,0,1,30.056,67.91Z" transform="translate(-28.343 -63.266)" fill="#0056d3"/>
      </g>
      <g id="그룹_88" data-name="그룹 88" transform="translate(2.009 10.497)">
        <path id="패스_96" data-name="패스 96" d="M28.548,69.42a1.73,1.73,0,0,1-1.218-.5,1.713,1.713,0,0,1,.006-2.425l1.213-1.213a1.715,1.715,0,1,1,2.425,2.425l-1.213,1.213A1.727,1.727,0,0,1,28.548,69.42Z" transform="translate(-26.83 -64.778)" fill="#0056d3"/>
      </g>
    </g>
    <g id="그룹_99" data-name="그룹 99" transform="translate(47.857 68.619)">
      <g id="그룹_90" data-name="그룹 90" transform="translate(0 5.142)">
        <path id="패스_97" data-name="패스 97" d="M29.833,61.38h0Z" transform="translate(-28.121 -59.662)" fill="#a8ffa8"/>
        <path id="패스_98" data-name="패스 98" d="M34.67,64.5H31.24a1.715,1.715,0,0,1,0-3.43h3.43a1.715,1.715,0,1,1,0,3.43Z" transform="translate(-29.528 -61.074)" fill="#04b46f"/>
      </g>
      <g id="그룹_91" data-name="그룹 91" transform="translate(0 12.007)">
        <path id="패스_99" data-name="패스 99" d="M29.833,62.6h0Z" transform="translate(-28.121 -60.89)" fill="#a8ffa8"/>
        <path id="패스_100" data-name="패스 100" d="M34.67,65.727H31.24a1.715,1.715,0,0,1,0-3.43h3.43a1.715,1.715,0,1,1,0,3.43Z" transform="translate(-29.528 -62.297)" fill="#04b46f"/>
      </g>
      <g id="그룹_92" data-name="그룹 92" transform="translate(13.719 5.142)">
        <path id="패스_101" data-name="패스 101" d="M32.278,61.38h0Z" transform="translate(-30.56 -59.662)" fill="#a8ffa8"/>
        <path id="패스_102" data-name="패스 102" d="M37.12,64.5H33.69a1.715,1.715,0,1,1,0-3.43h3.43a1.715,1.715,0,0,1,0,3.43Z" transform="translate(-31.972 -61.074)" fill="#04b46f"/>
      </g>
      <g id="그룹_93" data-name="그룹 93" transform="translate(13.719 12.007)">
        <path id="패스_103" data-name="패스 103" d="M32.278,62.6h0Z" transform="translate(-30.56 -60.89)" fill="#a8ffa8"/>
        <path id="패스_104" data-name="패스 104" d="M37.12,65.727H33.69a1.715,1.715,0,1,1,0-3.43h3.43a1.715,1.715,0,0,1,0,3.43Z" transform="translate(-31.972 -62.297)" fill="#04b46f"/>
      </g>
      <g id="그룹_94" data-name="그룹 94" transform="translate(5.142 13.719)">
        <path id="패스_105" data-name="패스 105" d="M30.75,66.338v0Z" transform="translate(-29.032 -61.19)" fill="#a8ffa8"/>
        <path id="패스_106" data-name="패스 106" d="M32.162,69.462a1.713,1.713,0,0,1-1.718-1.712V64.32a1.718,1.718,0,1,1,3.435,0v3.43A1.713,1.713,0,0,1,32.162,69.462Z" transform="translate(-30.444 -62.602)" fill="#04b46f"/>
      </g>
      <g id="그룹_95" data-name="그룹 95" transform="translate(12.007 13.719)">
        <path id="패스_107" data-name="패스 107" d="M31.972,66.338v0Z" transform="translate(-30.26 -61.19)" fill="#a8ffa8"/>
        <path id="패스_108" data-name="패스 108" d="M33.379,69.462a1.708,1.708,0,0,1-1.712-1.712V64.32a1.715,1.715,0,1,1,3.43,0v3.43A1.713,1.713,0,0,1,33.379,69.462Z" transform="translate(-31.667 -62.602)" fill="#04b46f"/>
      </g>
      <g id="그룹_96" data-name="그룹 96" transform="translate(5.142)">
        <path id="패스_109" data-name="패스 109" d="M30.75,63.893v0Z" transform="translate(-29.032 -58.751)" fill="#a8ffa8"/>
        <path id="패스_110" data-name="패스 110" d="M32.162,67.018A1.718,1.718,0,0,1,30.444,65.3V61.87a1.718,1.718,0,0,1,3.435,0V65.3A1.718,1.718,0,0,1,32.162,67.018Z" transform="translate(-30.444 -60.158)" fill="#04b46f"/>
      </g>
      <g id="그룹_97" data-name="그룹 97" transform="translate(12.007)">
        <path id="패스_111" data-name="패스 111" d="M31.972,63.893v0Z" transform="translate(-30.26 -58.751)" fill="#a8ffa8"/>
        <path id="패스_112" data-name="패스 112" d="M33.379,67.018A1.713,1.713,0,0,1,31.667,65.3V61.87a1.715,1.715,0,0,1,3.43,0V65.3A1.718,1.718,0,0,1,33.379,67.018Z" transform="translate(-31.667 -60.158)" fill="#04b46f"/>
      </g>
      <g id="그룹_98" data-name="그룹 98" transform="translate(3.43 3.43)">
        <rect id="사각형_9" data-name="사각형 9" width="10.291" height="10.292" transform="translate(12.006 1.714) rotate(90)" fill="#a8ffa8"/>
        <path id="패스_113" data-name="패스 113" d="M42.146,74.488h-10.3a1.712,1.712,0,0,1-1.712-1.712v-10.3a1.715,1.715,0,0,1,1.712-1.712h10.3a1.712,1.712,0,0,1,1.712,1.712v10.3A1.708,1.708,0,0,1,42.146,74.488Zm-8.577-3.43h6.86V64.2h-6.86Z" transform="translate(-30.139 -60.769)" fill="#04b46f"/>
      </g>
    </g>
  </g>
</svg>
